<svg width="910" height="383" viewBox="0 0 910 383" fill="none" xmlns="http://www.w3.org/2000/svg">
<circle cx="359.783" cy="131.783" r="129" transform="rotate(-1.24965 359.783 131.783)" fill="#10254E"/>
<path fill-rule="evenodd" clip-rule="evenodd" d="M366.203 2.93713C338.098 17.998 307.99 50.3941 293.862 92.9526C286.992 91.222 281.302 88.3056 276.633 84.7552C264.946 75.8669 259.258 62.7082 257.646 52.9777C280.65 23.2004 316.42 3.69795 356.969 2.81341C360.072 2.74573 363.151 2.78816 366.203 2.93713ZM375.112 3.68049L375.283 4.07347C346.807 16.517 313.793 49.352 298.8 93.9529C309.934 95.6853 323.806 94.4635 340.952 88.4246C373.274 77.0408 405.617 77.6511 432.54 82.8022C454.483 87.0005 472.933 94.2355 484.977 100.567C472.182 49.0492 428.508 10.0021 375.112 3.68049ZM486.413 107.062C475.204 100.593 455.593 92.3035 431.6 87.7131C405.298 82.6808 373.891 82.1245 342.613 93.1407C324.431 99.5445 309.453 100.82 297.265 98.7708C294.74 107.156 292.856 115.936 291.757 125.056C312.783 126.508 335.649 128.963 358.395 132.652C405.507 140.293 452.62 153.302 481.706 174.027C486.59 159.936 489.096 144.753 488.752 128.969C488.588 121.487 487.791 114.168 486.413 107.062ZM479.908 178.895C451.996 158.463 405.31 145.326 357.595 137.588C334.933 133.913 312.157 131.472 291.239 130.032C290.406 139.523 290.43 149.362 291.466 159.49C307.706 157.696 325.677 160.656 343.2 172.724C356.528 181.902 367.149 190.293 376.172 197.693C378.923 199.949 381.514 202.103 383.981 204.155L383.982 204.156L383.983 204.156C389.645 208.864 394.659 213.033 399.474 216.661C412.475 226.455 423.617 231.986 440.673 232.278C458.02 218.295 471.65 199.924 479.908 178.895ZM434.515 236.946C419.384 235.518 408.488 229.712 396.466 220.654C391.55 216.951 386.391 212.661 380.678 207.911L380.677 207.911C378.229 205.875 375.678 203.755 373.002 201.559C364.04 194.21 353.537 185.913 340.364 176.842C323.995 165.568 307.264 162.78 292.053 164.454C295.989 193.82 308.497 225.491 333.294 258.063C342.733 260.035 352.543 260.971 362.596 260.752C389.434 260.167 414.18 251.425 434.515 236.946ZM325.702 256.235C302.777 224.688 290.963 193.904 287.103 165.161C284.991 165.532 282.914 165.983 280.877 166.505C264.572 170.678 250.925 179.311 242.877 186.396C258.78 220.39 289.045 246.213 325.702 256.235ZM240.761 181.62C249.448 174.286 263.261 165.853 279.637 161.661C281.882 161.086 284.175 160.591 286.511 160.19C285.428 149.722 285.392 139.539 286.248 129.705C264.867 128.375 245.656 128.1 230.819 128.62C230.772 130.601 230.769 132.594 230.813 134.596C231.177 151.263 234.686 167.122 240.761 181.62ZM231.034 123.609C246.032 123.101 265.33 123.388 286.76 124.727C287.871 115.377 289.783 106.36 292.357 97.7317C285.014 95.844 278.801 92.6855 273.607 88.735C262.483 80.2753 256.321 68.3958 253.696 58.3724C240.684 77.1432 232.537 99.5084 231.034 123.609Z" fill="#F78718"/>
<path fill-rule="evenodd" clip-rule="evenodd" d="M472.542 69.0866C459.625 45.9925 439.827 27.3195 415.985 15.7826C444.695 33.3041 466.083 61.7529 474.252 95.4828C478.227 97.1924 481.817 98.9106 484.968 100.567C482.2 89.4215 477.986 78.8597 472.542 69.0866ZM471.128 167.268C475.798 153.445 478.185 138.589 477.848 123.16C477.687 115.776 476.909 108.55 475.563 101.532C479.736 103.435 483.376 105.315 486.403 107.062C487.782 114.168 488.579 121.487 488.742 128.969C489.086 144.753 486.581 159.936 481.697 174.027C478.397 171.676 474.865 169.424 471.128 167.268ZM424.935 230.181C444.883 215.595 460.456 195.434 469.406 172.048C473.14 174.233 476.646 176.515 479.898 178.895C471.641 199.924 458.01 218.295 440.663 232.278C434.833 232.178 429.694 231.466 424.935 230.181ZM329.958 253.599C337.037 254.639 344.299 255.103 351.692 254.942C376.838 254.394 400.146 246.685 419.712 233.806C424.268 235.374 429.118 236.438 434.505 236.946C414.17 251.425 389.425 260.167 362.586 260.752C352.533 260.971 342.723 260.035 333.285 258.063C332.15 256.573 331.041 255.085 329.958 253.599ZM293.783 242.646C302.965 246.991 312.735 250.282 322.934 252.366C323.835 253.654 324.754 254.944 325.693 256.235C314.367 253.138 303.653 248.534 293.783 242.646Z" fill="#C76C11"/>
<path d="M683.674 63.0111L692.936 8.41235H909.869L900.607 63.0111H825.533L793.359 258.007H726.573L758.747 63.0111H683.674Z" fill="#10254E"/>
<path d="M495.524 258.007L536.96 8.41235H604.721L572.547 203.408H673.457L664.195 258.007H495.524Z" fill="#10254E"/>
<path d="M0 258.007L41.4365 8.41235H149.659C168.671 8.41235 184.23 10.9717 196.336 16.0903C208.523 21.2089 217.136 28.44 222.173 37.7835C227.292 47.1271 228.795 58.1362 226.682 70.8109C225.057 79.9107 221.564 88.2386 216.201 95.7947C210.92 103.27 204.217 109.607 196.092 114.807C188.049 119.925 179.071 123.46 169.159 125.41L168.671 127.847C179.396 128.172 188.739 130.853 196.702 135.891C204.664 140.847 210.514 147.753 214.251 156.609C217.989 165.384 218.882 175.621 216.933 187.321C214.658 200.97 209.092 213.117 200.236 223.761C191.38 234.404 179.883 242.773 165.746 248.866C151.609 254.96 135.522 258.007 117.485 258.007H0ZM77.0232 203.895H108.71C119.922 203.895 128.738 201.742 135.156 197.436C141.656 193.13 145.515 186.833 146.734 178.546C147.709 172.696 147.222 167.74 145.272 163.678C143.322 159.615 140.031 156.528 135.4 154.415C130.769 152.303 124.96 151.247 117.972 151.247H85.3105L77.0232 203.895ZM92.6229 109.323H120.41C126.26 109.323 131.622 108.388 136.497 106.519C141.372 104.651 145.394 101.929 148.562 98.354C151.731 94.7791 153.721 90.473 154.534 85.4356C155.753 77.6358 153.884 71.7047 148.928 67.6422C144.053 63.5798 137.472 61.5486 129.185 61.5486H100.423L92.6229 109.323Z" fill="#10254E"/>
<path d="M85.7798 358V288.182H111.348C116.303 288.182 120.405 289 123.655 290.636C126.905 292.25 129.337 294.443 130.95 297.216C132.564 299.966 133.371 303.068 133.371 306.523C133.371 309.432 132.837 311.886 131.768 313.886C130.7 315.864 129.268 317.455 127.473 318.659C125.7 319.841 123.746 320.705 121.609 321.25V321.932C123.928 322.045 126.189 322.795 128.393 324.182C130.621 325.545 132.462 327.489 133.916 330.011C135.371 332.534 136.098 335.602 136.098 339.216C136.098 342.784 135.257 345.989 133.575 348.83C131.916 351.648 129.348 353.886 125.871 355.545C122.393 357.182 117.95 358 112.541 358H85.7798ZM96.3139 348.966H111.518C116.564 348.966 120.178 347.989 122.359 346.034C124.541 344.08 125.632 341.636 125.632 338.705C125.632 336.5 125.075 334.477 123.962 332.636C122.848 330.795 121.257 329.33 119.189 328.239C117.143 327.148 114.712 326.602 111.893 326.602H96.3139V348.966ZM96.3139 318.386H110.428C112.791 318.386 114.916 317.932 116.803 317.023C118.712 316.114 120.223 314.841 121.337 313.205C122.473 311.545 123.041 309.591 123.041 307.341C123.041 304.455 122.03 302.034 120.007 300.08C117.984 298.125 114.882 297.148 110.7 297.148H96.3139V318.386ZM168.49 358H157.308L182.433 288.182H194.604L219.729 358H208.547L188.808 300.864H188.263L168.49 358ZM170.365 330.659H206.638V339.523H170.365V330.659ZM281.328 306.523C280.964 303.295 279.464 300.795 276.828 299.023C274.192 297.227 270.874 296.33 266.874 296.33C264.01 296.33 261.533 296.784 259.442 297.693C257.351 298.58 255.726 299.807 254.567 301.375C253.43 302.92 252.862 304.682 252.862 306.659C252.862 308.318 253.249 309.75 254.021 310.955C254.817 312.159 255.851 313.17 257.124 313.989C258.419 314.784 259.805 315.455 261.283 316C262.76 316.523 264.18 316.955 265.544 317.295L272.362 319.068C274.589 319.614 276.874 320.352 279.214 321.284C281.555 322.216 283.726 323.443 285.726 324.966C287.726 326.489 289.339 328.375 290.567 330.625C291.817 332.875 292.442 335.568 292.442 338.705C292.442 342.659 291.419 346.17 289.374 349.239C287.351 352.307 284.408 354.727 280.544 356.5C276.703 358.273 272.055 359.159 266.601 359.159C261.374 359.159 256.851 358.33 253.033 356.67C249.214 355.011 246.226 352.659 244.067 349.614C241.908 346.545 240.714 342.909 240.487 338.705H251.055C251.26 341.227 252.078 343.33 253.51 345.011C254.964 346.67 256.817 347.909 259.067 348.727C261.339 349.523 263.828 349.92 266.533 349.92C269.51 349.92 272.158 349.455 274.476 348.523C276.817 347.568 278.658 346.25 279.999 344.568C281.339 342.864 282.01 340.875 282.01 338.602C282.01 336.534 281.419 334.841 280.237 333.523C279.078 332.205 277.499 331.114 275.499 330.25C273.521 329.386 271.283 328.625 268.783 327.966L260.533 325.716C254.942 324.193 250.51 321.955 247.237 319C243.987 316.045 242.362 312.136 242.362 307.273C242.362 303.25 243.453 299.739 245.635 296.739C247.817 293.739 250.771 291.409 254.499 289.75C258.226 288.068 262.43 287.227 267.112 287.227C271.839 287.227 276.01 288.057 279.624 289.716C283.26 291.375 286.124 293.659 288.214 296.568C290.305 299.455 291.396 302.773 291.487 306.523H281.328ZM319.03 358V288.182H329.564V321.523H330.416L359.7 288.182H372.962L344.803 319.614L373.064 358H360.382L337.814 326.807L329.564 336.284V358H319.03ZM396.78 358V288.182H440.553V297.25H407.314V318.523H438.268V327.557H407.314V348.932H440.962V358H396.78ZM465.18 297.25V288.182H519.214V297.25H497.43V358H486.93V297.25H465.18ZM545.155 358V288.182H570.723C575.678 288.182 579.78 289 583.03 290.636C586.28 292.25 588.712 294.443 590.325 297.216C591.939 299.966 592.746 303.068 592.746 306.523C592.746 309.432 592.212 311.886 591.143 313.886C590.075 315.864 588.643 317.455 586.848 318.659C585.075 319.841 583.121 320.705 580.984 321.25V321.932C583.303 322.045 585.564 322.795 587.768 324.182C589.996 325.545 591.837 327.489 593.291 330.011C594.746 332.534 595.473 335.602 595.473 339.216C595.473 342.784 594.632 345.989 592.95 348.83C591.291 351.648 588.723 353.886 585.246 355.545C581.768 357.182 577.325 358 571.916 358H545.155ZM555.689 348.966H570.893C575.939 348.966 579.553 347.989 581.734 346.034C583.916 344.08 585.007 341.636 585.007 338.705C585.007 336.5 584.45 334.477 583.337 332.636C582.223 330.795 580.632 329.33 578.564 328.239C576.518 327.148 574.087 326.602 571.268 326.602H555.689V348.966ZM555.689 318.386H569.803C572.166 318.386 574.291 317.932 576.178 317.023C578.087 316.114 579.598 314.841 580.712 313.205C581.848 311.545 582.416 309.591 582.416 307.341C582.416 304.455 581.405 302.034 579.382 300.08C577.359 298.125 574.257 297.148 570.075 297.148H555.689V318.386ZM627.865 358H616.683L641.808 288.182H653.979L679.104 358H667.922L648.183 300.864H647.638L627.865 358ZM629.74 330.659H666.013V339.523H629.74V330.659ZM703.186 358V288.182H713.72V348.932H745.357V358H703.186ZM771.374 358V288.182H781.908V348.932H813.544V358H771.374Z" fill="#10254E"/>
</svg>
