<svg width="842" height="492" viewBox="0 0 842 492" fill="none" xmlns="http://www.w3.org/2000/svg">
<g clip-path="url(#clip0_126_50)">
<rect width="842" height="492" fill="white"/>
<circle cx="371.712" cy="180.212" r="67.2607" transform="rotate(-1.24965 371.712 180.212)" fill="#10254E"/>
<path fill-rule="evenodd" clip-rule="evenodd" d="M372.617 112.958C358.444 121.192 343.748 137.45 336.449 158.513C333.486 157.629 331.012 156.299 328.961 154.739C322.695 149.974 319.888 142.704 319.366 137.824C331.384 123.032 349.577 113.415 370.124 112.967C370.958 112.949 371.789 112.946 372.617 112.958ZM379.583 113.419L380.152 114.72C365.924 120.938 349.327 137.241 341.405 159.491C346.748 160.057 353.324 159.312 361.375 156.476C378.477 150.453 395.565 150.784 409.751 153.498C420.733 155.599 430.074 159.147 436.461 162.38C429.311 136.291 406.884 116.651 379.583 113.419ZM437.899 168.88C432.376 165.523 421.866 160.907 408.812 158.409C395.246 155.814 379.095 155.536 363.036 161.192C353.903 164.409 346.224 165.204 339.847 164.339C338.808 167.957 338.001 171.716 337.47 175.6C348.12 176.37 359.618 177.629 371.059 179.484C395.471 183.443 420.121 190.192 435.56 201.054C437.844 194.043 439.005 186.534 438.835 178.745C438.762 175.388 438.444 172.094 437.899 168.88ZM433.762 205.922C419.497 195.353 395.274 188.477 370.258 184.42C358.903 182.578 347.493 181.333 336.95 180.575C336.649 184.713 336.665 188.978 337.048 193.353C345.44 192.664 354.647 194.391 363.623 200.573C370.61 205.384 376.176 209.782 380.895 213.652C382.348 214.844 383.708 215.975 384.999 217.048C387.939 219.493 390.519 221.638 393.006 223.512C399.98 228.765 405.774 231.537 415.095 231.416L415.096 231.51C423.199 224.63 429.642 215.87 433.762 205.922ZM409.06 236.079C401.599 235.098 396.024 232.045 389.997 227.505C387.41 225.556 384.685 223.29 381.695 220.804C380.423 219.746 379.103 218.649 377.724 217.518C373.067 213.698 367.618 209.395 360.788 204.691C352.963 199.302 344.989 197.751 337.637 198.32C339.889 213.401 346.557 229.66 359.555 246.4C363.927 247.191 368.443 247.557 373.058 247.456C386.4 247.165 398.749 243.008 409.06 236.079ZM351.962 244.564C340.799 228.842 334.839 213.469 332.687 199.026C332.033 199.161 331.386 199.311 330.746 199.475C322.271 201.644 315.203 206.19 311.174 209.81C319.319 226.407 334.088 239.115 351.962 244.564ZM309.058 205.034C313.727 201.165 320.961 196.818 329.506 194.631C330.355 194.414 331.216 194.218 332.09 194.046C331.663 189.33 331.636 184.724 331.96 180.249C321.308 179.62 311.753 179.498 304.331 179.76C304.327 180.398 304.332 181.037 304.346 181.679C304.526 189.925 306.183 197.793 309.058 205.034ZM304.547 174.75C312.125 174.498 321.767 174.632 332.47 175.27C333.016 171.146 333.856 167.145 334.948 163.286C331.487 162.245 328.494 160.666 325.934 158.719C320.254 154.399 316.96 148.456 315.399 143.234C309.336 152.43 305.474 163.19 304.547 174.75Z" fill="#F78718"/>
<path fill-rule="evenodd" clip-rule="evenodd" d="M430.476 147.688C423.743 135.57 413.383 125.772 400.894 119.729C415.449 128.611 426.394 142.88 430.905 159.828C432.939 160.679 434.797 161.54 436.456 162.38C435.037 157.203 433.017 152.28 430.476 147.688ZM430.026 197.553C432.21 190.677 433.316 183.33 433.15 175.716C433.077 172.368 432.761 169.083 432.218 165.877C434.457 166.926 436.366 167.951 437.894 168.88C438.439 172.094 438.757 175.388 438.83 178.745C439 186.534 437.839 194.043 435.555 201.054C433.823 199.836 431.976 198.669 430.026 197.553ZM406.794 230.594C416.288 223.313 423.772 213.565 428.306 202.332C430.251 203.478 432.074 204.674 433.757 205.921C429.637 215.87 423.194 224.63 415.091 231.51L415.09 231.416C411.993 231.456 409.285 231.177 406.794 230.594ZM357.689 243.948C360.856 244.334 364.089 244.499 367.372 244.427C379.944 244.153 391.635 240.446 401.569 234.222C403.891 235.095 406.349 235.723 409.055 236.079C398.744 243.008 386.395 247.165 373.053 247.456C368.438 247.557 363.922 247.19 359.55 246.4C358.914 245.582 358.294 244.764 357.689 243.948ZM337.181 238.017C341.451 240.038 345.965 241.621 350.664 242.71C351.087 243.327 351.518 243.945 351.957 244.563C346.738 242.972 341.783 240.762 337.181 238.017Z" fill="#C76C11"/>
<path d="M540.468 145.365L545.297 116.897H658.406L653.577 145.365H614.433L597.658 247.036H562.835L579.611 145.365H540.468Z" fill="#10254E"/>
<path d="M442.366 247.036L463.971 116.897H499.302L482.526 218.568H535.141L530.312 247.036H442.366Z" fill="#10254E"/>
<path d="M184 247.036L205.605 116.897H262.032C271.945 116.897 280.058 118.231 286.37 120.9C292.724 123.569 297.215 127.339 299.841 132.211C302.51 137.083 303.294 142.823 302.192 149.432C301.345 154.176 299.523 158.518 296.727 162.458C293.974 166.356 290.479 169.66 286.243 172.371C282.049 175.04 277.368 176.883 272.199 177.899L271.945 179.17C277.537 179.34 282.409 180.738 286.56 183.364C290.712 185.948 293.762 189.549 295.711 194.167C297.659 198.742 298.125 204.08 297.109 210.18C295.923 217.297 293.021 223.63 288.403 229.18C283.786 234.729 277.791 239.093 270.42 242.27C263.049 245.447 254.661 247.036 245.257 247.036H184ZM224.16 218.822H240.681C246.528 218.822 251.124 217.699 254.471 215.454C257.86 213.209 259.872 209.926 260.507 205.605C261.016 202.555 260.761 199.97 259.745 197.852C258.728 195.734 257.012 194.124 254.598 193.023C252.183 191.922 249.154 191.371 245.511 191.371H228.481L224.16 218.822ZM232.294 169.512H246.782C249.832 169.512 252.628 169.024 255.17 168.05C257.711 167.076 259.808 165.657 261.46 163.793C263.113 161.929 264.15 159.683 264.574 157.057C265.21 152.99 264.235 149.898 261.651 147.779C259.109 145.661 255.678 144.602 251.357 144.602H236.36L232.294 169.512Z" fill="#10254E"/>
<path d="M208.39 298.5V263.591H221.174C223.651 263.591 225.702 264 227.327 264.818C228.952 265.625 230.168 266.722 230.975 268.108C231.782 269.483 232.185 271.034 232.185 272.761C232.185 274.216 231.918 275.443 231.384 276.443C230.85 277.432 230.134 278.227 229.237 278.83C228.35 279.42 227.373 279.852 226.305 280.125V280.466C227.464 280.523 228.594 280.898 229.697 281.591C230.81 282.273 231.731 283.244 232.458 284.506C233.185 285.767 233.549 287.301 233.549 289.108C233.549 290.892 233.129 292.494 232.288 293.915C231.458 295.324 230.174 296.443 228.435 297.273C226.697 298.091 224.475 298.5 221.771 298.5H208.39ZM213.657 293.983H221.259C223.782 293.983 225.589 293.494 226.68 292.517C227.771 291.54 228.316 290.318 228.316 288.852C228.316 287.75 228.038 286.739 227.481 285.818C226.924 284.898 226.129 284.165 225.094 283.619C224.072 283.074 222.856 282.801 221.447 282.801H213.657V293.983ZM213.657 278.693H220.714C221.896 278.693 222.958 278.466 223.901 278.011C224.856 277.557 225.612 276.92 226.168 276.102C226.737 275.273 227.021 274.295 227.021 273.17C227.021 271.727 226.515 270.517 225.504 269.54C224.492 268.562 222.941 268.074 220.85 268.074H213.657V278.693ZM256.745 298.5H251.154L263.717 263.591H269.802L282.364 298.5H276.773L266.904 269.932H266.631L256.745 298.5ZM257.683 284.83H275.819V289.261H257.683V284.83ZM320.164 272.761C319.982 271.148 319.232 269.898 317.914 269.011C316.596 268.114 314.937 267.665 312.937 267.665C311.505 267.665 310.266 267.892 309.221 268.347C308.175 268.79 307.363 269.403 306.783 270.188C306.215 270.96 305.931 271.841 305.931 272.83C305.931 273.659 306.124 274.375 306.511 274.977C306.908 275.58 307.425 276.085 308.062 276.494C308.71 276.892 309.403 277.227 310.141 277.5C310.88 277.761 311.59 277.977 312.272 278.148L315.681 279.034C316.795 279.307 317.937 279.676 319.107 280.142C320.278 280.608 321.363 281.222 322.363 281.983C323.363 282.744 324.17 283.688 324.783 284.812C325.408 285.938 325.721 287.284 325.721 288.852C325.721 290.83 325.21 292.585 324.187 294.119C323.175 295.653 321.704 296.864 319.772 297.75C317.852 298.636 315.528 299.08 312.8 299.08C310.187 299.08 307.925 298.665 306.016 297.835C304.107 297.006 302.613 295.83 301.533 294.307C300.454 292.773 299.857 290.955 299.744 288.852H305.028C305.13 290.114 305.539 291.165 306.255 292.006C306.982 292.835 307.908 293.455 309.033 293.864C310.17 294.261 311.414 294.46 312.766 294.46C314.255 294.46 315.579 294.227 316.738 293.761C317.908 293.284 318.829 292.625 319.499 291.784C320.17 290.932 320.505 289.937 320.505 288.801C320.505 287.767 320.21 286.92 319.619 286.261C319.039 285.602 318.249 285.057 317.249 284.625C316.261 284.193 315.141 283.812 313.891 283.483L309.766 282.358C306.971 281.597 304.755 280.477 303.119 279C301.494 277.523 300.681 275.568 300.681 273.136C300.681 271.125 301.227 269.369 302.317 267.869C303.408 266.369 304.886 265.205 306.749 264.375C308.613 263.534 310.715 263.114 313.056 263.114C315.42 263.114 317.505 263.528 319.312 264.358C321.13 265.188 322.562 266.33 323.607 267.784C324.653 269.227 325.198 270.886 325.244 272.761H320.164ZM346.015 298.5V263.591H351.282V280.261H351.708L366.35 263.591H372.981L358.901 279.307L373.032 298.5H366.691L355.407 282.903L351.282 287.642V298.5H346.015ZM391.89 298.5V263.591H413.776V268.125H397.157V278.761H412.634V283.278H397.157V293.966H413.981V298.5H391.89ZM433.09 268.125V263.591H460.107V268.125H449.215V298.5H443.965V268.125H433.09ZM480.077 298.5V263.591H492.862C495.339 263.591 497.39 264 499.015 264.818C500.64 265.625 501.856 266.722 502.663 268.108C503.469 269.483 503.873 271.034 503.873 272.761C503.873 274.216 503.606 275.443 503.072 276.443C502.538 277.432 501.822 278.227 500.924 278.83C500.038 279.42 499.06 279.852 497.992 280.125V280.466C499.151 280.523 500.282 280.898 501.384 281.591C502.498 282.273 503.418 283.244 504.146 284.506C504.873 285.767 505.237 287.301 505.237 289.108C505.237 290.892 504.816 292.494 503.975 293.915C503.146 295.324 501.862 296.443 500.123 297.273C498.384 298.091 496.163 298.5 493.458 298.5H480.077ZM485.344 293.983H492.947C495.469 293.983 497.276 293.494 498.367 292.517C499.458 291.54 500.004 290.318 500.004 288.852C500.004 287.75 499.725 286.739 499.168 285.818C498.612 284.898 497.816 284.165 496.782 283.619C495.759 283.074 494.543 282.801 493.134 282.801H485.344V293.983ZM485.344 278.693H492.401C493.583 278.693 494.646 278.466 495.589 278.011C496.543 277.557 497.299 276.92 497.856 276.102C498.424 275.273 498.708 274.295 498.708 273.17C498.708 271.727 498.202 270.517 497.191 269.54C496.18 268.562 494.629 268.074 492.538 268.074H485.344V278.693ZM528.433 298.5H522.842L535.404 263.591H541.489L554.052 298.5H548.461L538.592 269.932H538.319L528.433 298.5ZM529.37 284.83H547.506V289.261H529.37V284.83ZM573.093 298.5V263.591H578.36V293.966H594.178V298.5H573.093ZM614.187 298.5V263.591H619.454V293.966H635.272V298.5H614.187Z" fill="#10254E"/>
<path d="M151.605 391.5L157.401 356.591H171.174C173.81 356.591 175.975 357.097 177.668 358.108C179.372 359.108 180.566 360.5 181.247 362.284C181.941 364.057 182.1 366.102 181.725 368.42C181.338 370.75 180.497 372.801 179.202 374.574C177.918 376.335 176.247 377.71 174.191 378.699C172.134 379.687 169.759 380.182 167.066 380.182H158.287L159.259 374.267H166.844C168.276 374.267 169.497 374.023 170.509 373.534C171.532 373.034 172.344 372.347 172.946 371.472C173.549 370.585 173.941 369.568 174.122 368.42C174.316 367.25 174.253 366.233 173.935 365.369C173.617 364.506 173.032 363.835 172.179 363.358C171.338 362.869 170.208 362.625 168.787 362.625H163.81L158.986 391.5H151.605ZM193.509 392.011C190.838 392.011 188.628 391.443 186.878 390.307C185.128 389.159 183.895 387.568 183.179 385.534C182.475 383.489 182.344 381.108 182.787 378.392C183.219 375.71 184.117 373.364 185.481 371.352C186.844 369.341 188.577 367.778 190.679 366.665C192.782 365.54 195.151 364.977 197.787 364.977C200.446 364.977 202.651 365.551 204.401 366.699C206.151 367.835 207.384 369.426 208.1 371.472C208.816 373.517 208.952 375.898 208.509 378.614C208.066 381.284 207.157 383.625 205.782 385.636C204.407 387.648 202.674 389.216 200.583 390.341C198.492 391.455 196.134 392.011 193.509 392.011ZM194.225 386.386C195.452 386.386 196.537 386.04 197.481 385.347C198.435 384.642 199.225 383.687 199.85 382.483C200.486 381.267 200.929 379.892 201.179 378.358C201.429 376.847 201.446 375.506 201.231 374.335C201.015 373.153 200.56 372.222 199.867 371.54C199.185 370.858 198.248 370.517 197.054 370.517C195.827 370.517 194.736 370.869 193.782 371.574C192.827 372.267 192.037 373.222 191.412 374.438C190.787 375.653 190.35 377.034 190.1 378.58C189.861 380.08 189.844 381.42 190.049 382.602C190.253 383.773 190.702 384.699 191.395 385.381C192.088 386.051 193.032 386.386 194.225 386.386ZM215.111 391.5L212.35 365.318H219.697L220.822 382.909H221.06L228.219 365.318H235.429L236.793 382.807H237.015L243.935 365.318H251.265L239.793 391.5H232.106L230.333 375.034H230.009L222.782 391.5H215.111ZM261.502 392.011C258.82 392.011 256.599 391.466 254.837 390.375C253.076 389.273 251.837 387.716 251.121 385.705C250.417 383.682 250.297 381.29 250.763 378.528C251.218 375.835 252.133 373.472 253.508 371.438C254.894 369.403 256.633 367.818 258.724 366.682C260.815 365.545 263.144 364.977 265.712 364.977C267.44 364.977 269.002 365.256 270.4 365.812C271.809 366.358 272.979 367.187 273.911 368.301C274.843 369.403 275.479 370.784 275.82 372.443C276.172 374.102 276.167 376.045 275.803 378.273L275.479 380.267H253.388L254.087 375.767H269.36C269.53 374.722 269.462 373.795 269.155 372.989C268.849 372.182 268.337 371.551 267.621 371.097C266.905 370.631 266.025 370.398 264.979 370.398C263.911 370.398 262.911 370.659 261.979 371.182C261.047 371.705 260.263 372.392 259.627 373.244C259.002 374.085 258.599 375 258.417 375.989L257.616 380.455C257.388 381.83 257.434 382.972 257.752 383.881C258.082 384.79 258.65 385.472 259.457 385.926C260.263 386.369 261.286 386.591 262.525 386.591C263.332 386.591 264.087 386.477 264.792 386.25C265.508 386.023 266.144 385.688 266.701 385.244C267.258 384.79 267.712 384.227 268.065 383.557L274.695 384C274.082 385.614 273.15 387.023 271.9 388.227C270.65 389.42 269.144 390.352 267.383 391.023C265.633 391.682 263.672 392.011 261.502 392.011ZM277.893 391.5L282.256 365.318H289.296L288.529 369.886H288.802C289.552 368.261 290.558 367.034 291.819 366.205C293.092 365.364 294.461 364.943 295.927 364.943C296.291 364.943 296.671 364.966 297.069 365.011C297.478 365.045 297.842 365.102 298.16 365.182L297.069 371.642C296.751 371.528 296.296 371.437 295.705 371.369C295.126 371.29 294.575 371.25 294.052 371.25C292.995 371.25 292.012 371.483 291.103 371.949C290.194 372.403 289.427 373.04 288.802 373.858C288.188 374.676 287.785 375.619 287.592 376.688L285.154 391.5H277.893ZM297.053 391.5L301.417 365.318H308.678L304.315 391.5H297.053ZM305.798 361.909C304.718 361.909 303.826 361.551 303.122 360.835C302.428 360.108 302.144 359.244 302.269 358.244C302.394 357.222 302.883 356.358 303.735 355.653C304.587 354.937 305.553 354.58 306.633 354.58C307.712 354.58 308.593 354.937 309.275 355.653C309.957 356.358 310.241 357.222 310.127 358.244C310.014 359.244 309.531 360.108 308.678 360.835C307.837 361.551 306.877 361.909 305.798 361.909ZM319.47 376.364L316.947 391.5H309.703L314.066 365.318H320.97L320.22 369.938H320.509C321.339 368.403 322.509 367.193 324.021 366.307C325.544 365.42 327.277 364.977 329.22 364.977C331.038 364.977 332.555 365.375 333.771 366.17C334.998 366.966 335.862 368.097 336.362 369.562C336.873 371.028 336.958 372.784 336.617 374.83L333.822 391.5H326.561L329.134 376.125C329.396 374.523 329.191 373.273 328.521 372.375C327.862 371.466 326.799 371.011 325.333 371.011C324.356 371.011 323.458 371.222 322.64 371.642C321.822 372.062 321.134 372.676 320.578 373.483C320.032 374.278 319.663 375.239 319.47 376.364ZM349.19 401.864C346.826 401.864 344.855 401.54 343.275 400.892C341.707 400.256 340.514 399.386 339.696 398.284C338.889 397.182 338.446 395.943 338.366 394.568L345.252 393.665C345.377 394.199 345.616 394.693 345.968 395.148C346.332 395.602 346.849 395.966 347.52 396.239C348.201 396.511 349.082 396.648 350.162 396.648C351.741 396.648 353.116 396.261 354.287 395.489C355.457 394.727 356.179 393.449 356.451 391.653L357.235 386.864H356.929C356.497 387.591 355.906 388.278 355.156 388.926C354.417 389.574 353.514 390.102 352.446 390.511C351.389 390.92 350.167 391.125 348.781 391.125C346.804 391.125 345.088 390.67 343.633 389.761C342.19 388.841 341.145 387.437 340.497 385.551C339.86 383.653 339.781 381.256 340.258 378.358C340.758 375.392 341.656 372.915 342.951 370.926C344.247 368.937 345.781 367.449 347.554 366.46C349.326 365.472 351.173 364.977 353.093 364.977C354.559 364.977 355.741 365.227 356.639 365.727C357.548 366.216 358.247 366.83 358.735 367.568C359.224 368.295 359.571 369.011 359.775 369.716H360.065L360.781 365.318H367.991L363.593 391.756C363.241 393.994 362.395 395.858 361.054 397.347C359.724 398.847 358.037 399.972 355.991 400.722C353.946 401.483 351.679 401.864 349.19 401.864ZM351.917 385.67C353.076 385.67 354.116 385.381 355.037 384.801C355.968 384.21 356.747 383.369 357.372 382.278C357.997 381.176 358.434 379.858 358.684 378.324C358.934 376.79 358.929 375.46 358.667 374.335C358.417 373.199 357.929 372.318 357.201 371.693C356.485 371.068 355.542 370.756 354.372 370.756C353.167 370.756 352.11 371.08 351.201 371.727C350.292 372.364 349.537 373.25 348.934 374.386C348.343 375.523 347.929 376.835 347.69 378.324C347.44 379.835 347.429 381.142 347.656 382.244C347.895 383.335 348.366 384.182 349.071 384.784C349.775 385.375 350.724 385.67 351.917 385.67ZM379.692 391.5L385.487 356.591H399.26C401.896 356.591 404.061 357.097 405.754 358.108C407.459 359.108 408.652 360.5 409.334 362.284C410.027 364.057 410.186 366.102 409.811 368.42C409.425 370.75 408.584 372.801 407.288 374.574C406.004 376.335 404.334 377.71 402.277 378.699C400.22 379.687 397.845 380.182 395.152 380.182H386.373L387.345 374.267H394.93C396.362 374.267 397.584 374.023 398.595 373.534C399.618 373.034 400.43 372.347 401.033 371.472C401.635 370.585 402.027 369.568 402.209 368.42C402.402 367.25 402.339 366.233 402.021 365.369C401.703 364.506 401.118 363.835 400.265 363.358C399.425 362.869 398.294 362.625 396.873 362.625H391.896L387.072 391.5H379.692ZM421.595 392.011C418.913 392.011 416.692 391.466 414.93 390.375C413.169 389.273 411.93 387.716 411.214 385.705C410.51 383.682 410.391 381.29 410.857 378.528C411.311 375.835 412.226 373.472 413.601 371.438C414.987 369.403 416.726 367.818 418.817 366.682C420.908 365.545 423.237 364.977 425.805 364.977C427.533 364.977 429.095 365.256 430.493 365.812C431.902 366.358 433.072 367.187 434.004 368.301C434.936 369.403 435.572 370.784 435.913 372.443C436.266 374.102 436.26 376.045 435.896 378.273L435.572 380.267H413.482L414.18 375.767H429.453C429.624 374.722 429.555 373.795 429.249 372.989C428.942 372.182 428.43 371.551 427.714 371.097C426.999 370.631 426.118 370.398 425.072 370.398C424.004 370.398 423.004 370.659 422.072 371.182C421.141 371.705 420.357 372.392 419.72 373.244C419.095 374.085 418.692 375 418.51 375.989L417.709 380.455C417.482 381.83 417.527 382.972 417.845 383.881C418.175 384.79 418.743 385.472 419.55 385.926C420.357 386.369 421.379 386.591 422.618 386.591C423.425 386.591 424.18 386.477 424.885 386.25C425.601 386.023 426.237 385.688 426.794 385.244C427.351 384.79 427.805 384.227 428.158 383.557L434.788 384C434.175 385.614 433.243 387.023 431.993 388.227C430.743 389.42 429.237 390.352 427.476 391.023C425.726 391.682 423.766 392.011 421.595 392.011ZM437.986 391.5L442.35 365.318H449.389L448.622 369.886H448.895C449.645 368.261 450.651 367.034 451.912 366.205C453.185 365.364 454.554 364.943 456.02 364.943C456.384 364.943 456.764 364.966 457.162 365.011C457.571 365.045 457.935 365.102 458.253 365.182L457.162 371.642C456.844 371.528 456.389 371.437 455.798 371.369C455.219 371.29 454.668 371.25 454.145 371.25C453.088 371.25 452.105 371.483 451.196 371.949C450.287 372.403 449.52 373.04 448.895 373.858C448.281 374.676 447.878 375.619 447.685 376.688L445.247 391.5H437.986ZM476.919 365.318L476.016 370.773H459.857L460.76 365.318H476.919ZM460.078 391.5L464.766 363.426C465.073 361.528 465.698 359.955 466.641 358.705C467.595 357.455 468.772 356.517 470.169 355.892C471.578 355.267 473.101 354.955 474.737 354.955C475.851 354.955 476.857 355.04 477.754 355.21C478.664 355.381 479.323 355.534 479.732 355.67L477.567 361.125C477.294 361.034 476.959 360.949 476.561 360.869C476.164 360.79 475.743 360.75 475.3 360.75C474.243 360.75 473.465 361 472.965 361.5C472.476 361.989 472.147 362.676 471.976 363.562L467.323 391.5H460.078ZM487.421 392.011C484.75 392.011 482.54 391.443 480.79 390.307C479.04 389.159 477.807 387.568 477.091 385.534C476.387 383.489 476.256 381.108 476.699 378.392C477.131 375.71 478.029 373.364 479.392 371.352C480.756 369.341 482.489 367.778 484.591 366.665C486.694 365.54 489.063 364.977 491.699 364.977C494.358 364.977 496.563 365.551 498.313 366.699C500.063 367.835 501.296 369.426 502.012 371.472C502.728 373.517 502.864 375.898 502.421 378.614C501.978 381.284 501.069 383.625 499.694 385.636C498.319 387.648 496.586 389.216 494.495 390.341C492.404 391.455 490.046 392.011 487.421 392.011ZM488.137 386.386C489.364 386.386 490.449 386.04 491.392 385.347C492.347 384.642 493.137 383.687 493.762 382.483C494.398 381.267 494.841 379.892 495.091 378.358C495.341 376.847 495.358 375.506 495.142 374.335C494.926 373.153 494.472 372.222 493.779 371.54C493.097 370.858 492.159 370.517 490.966 370.517C489.739 370.517 488.648 370.869 487.694 371.574C486.739 372.267 485.949 373.222 485.324 374.438C484.699 375.653 484.262 377.034 484.012 378.58C483.773 380.08 483.756 381.42 483.961 382.602C484.165 383.773 484.614 384.699 485.307 385.381C486 386.051 486.944 386.386 488.137 386.386ZM504.515 391.5L508.878 365.318H515.918L515.151 369.886H515.424C516.174 368.261 517.179 367.034 518.441 366.205C519.714 365.364 521.083 364.943 522.549 364.943C522.912 364.943 523.293 364.966 523.691 365.011C524.1 365.045 524.464 365.102 524.782 365.182L523.691 371.642C523.373 371.528 522.918 371.437 522.327 371.369C521.748 371.29 521.196 371.25 520.674 371.25C519.617 371.25 518.634 371.483 517.725 371.949C516.816 372.403 516.049 373.04 515.424 373.858C514.81 374.676 514.407 375.619 514.214 376.688L511.776 391.5H504.515ZM523.726 391.5L528.09 365.318H534.993L534.243 369.938H534.533C535.329 368.403 536.437 367.193 537.857 366.307C539.289 365.42 540.897 364.977 542.681 364.977C544.454 364.977 545.897 365.426 547.01 366.324C548.135 367.21 548.783 368.415 548.954 369.938H549.226C549.999 368.438 551.164 367.239 552.721 366.341C554.278 365.432 556.016 364.977 557.937 364.977C560.357 364.977 562.209 365.756 563.493 367.312C564.778 368.869 565.181 371.062 564.704 373.892L561.772 391.5H554.51L557.238 375.324C557.454 373.858 557.238 372.767 556.59 372.051C555.942 371.324 555.039 370.96 553.88 370.96C552.562 370.96 551.465 371.381 550.59 372.222C549.715 373.051 549.175 374.148 548.971 375.511L546.26 391.5H539.221L541.982 375.17C542.175 373.875 541.965 372.852 541.351 372.102C540.749 371.341 539.846 370.96 538.641 370.96C537.846 370.96 537.09 371.165 536.374 371.574C535.67 371.972 535.073 372.534 534.584 373.261C534.096 373.977 533.778 374.818 533.63 375.784L530.971 391.5H523.726ZM574.374 391.994C572.715 391.994 571.278 391.705 570.062 391.125C568.857 390.534 567.971 389.659 567.403 388.5C566.834 387.341 566.692 385.903 566.977 384.188C567.227 382.733 567.698 381.517 568.391 380.54C569.096 379.551 569.954 378.756 570.965 378.153C571.977 377.551 573.096 377.091 574.323 376.773C575.562 376.455 576.84 376.239 578.158 376.125C579.681 375.966 580.92 375.812 581.874 375.665C582.84 375.517 583.562 375.307 584.039 375.034C584.516 374.75 584.806 374.33 584.908 373.773V373.67C585.079 372.602 584.88 371.773 584.312 371.182C583.755 370.58 582.863 370.278 581.636 370.278C580.34 370.278 579.238 370.562 578.329 371.131C577.431 371.699 576.789 372.42 576.403 373.295L569.789 372.75C570.38 371.159 571.272 369.784 572.465 368.625C573.67 367.455 575.119 366.557 576.812 365.932C578.505 365.295 580.403 364.977 582.505 364.977C583.959 364.977 585.317 365.148 586.579 365.489C587.852 365.83 588.948 366.358 589.869 367.074C590.8 367.79 591.471 368.71 591.88 369.835C592.3 370.949 592.386 372.284 592.136 373.841L589.187 391.5H582.3L582.914 387.869H582.709C582.153 388.688 581.471 389.409 580.664 390.034C579.857 390.648 578.931 391.131 577.886 391.483C576.84 391.824 575.67 391.994 574.374 391.994ZM577.289 386.983C578.346 386.983 579.317 386.773 580.204 386.352C581.102 385.92 581.84 385.341 582.42 384.614C583.011 383.886 583.386 383.062 583.545 382.142L583.988 379.364C583.761 379.511 583.431 379.642 582.999 379.756C582.579 379.869 582.119 379.977 581.619 380.08C581.13 380.17 580.636 380.256 580.136 380.335C579.636 380.403 579.187 380.472 578.789 380.54C577.914 380.665 577.13 380.864 576.437 381.136C575.744 381.409 575.181 381.778 574.749 382.244C574.317 382.699 574.05 383.267 573.948 383.949C573.789 384.938 574.022 385.693 574.647 386.216C575.283 386.727 576.164 386.983 577.289 386.983ZM604.158 376.364L601.636 391.5H594.391L598.755 365.318H605.658L604.908 369.938H605.198C606.028 368.403 607.198 367.193 608.71 366.307C610.232 365.42 611.965 364.977 613.908 364.977C615.727 364.977 617.244 365.375 618.46 366.17C619.687 366.966 620.55 368.097 621.05 369.562C621.562 371.028 621.647 372.784 621.306 374.83L618.511 391.5H611.249L613.823 376.125C614.085 374.523 613.88 373.273 613.21 372.375C612.55 371.466 611.488 371.011 610.022 371.011C609.045 371.011 608.147 371.222 607.329 371.642C606.511 372.062 605.823 372.676 605.266 373.483C604.721 374.278 604.352 375.239 604.158 376.364ZM635.481 392.011C632.788 392.011 630.572 391.443 628.833 390.307C627.106 389.159 625.896 387.568 625.203 385.534C624.521 383.5 624.401 381.159 624.845 378.511C625.276 375.83 626.18 373.477 627.555 371.455C628.93 369.42 630.674 367.835 632.788 366.699C634.913 365.551 637.299 364.977 639.947 364.977C642.231 364.977 644.163 365.392 645.742 366.222C647.322 367.051 648.481 368.216 649.22 369.716C649.958 371.216 650.208 372.977 649.97 375H643.134C643.146 373.705 642.811 372.653 642.129 371.847C641.447 371.04 640.447 370.636 639.129 370.636C637.992 370.636 636.947 370.943 635.992 371.557C635.049 372.159 634.248 373.04 633.589 374.199C632.941 375.358 632.487 376.761 632.225 378.409C631.953 380.08 631.947 381.5 632.208 382.67C632.47 383.841 632.97 384.733 633.708 385.347C634.447 385.96 635.379 386.267 636.504 386.267C637.345 386.267 638.123 386.097 638.839 385.756C639.566 385.415 640.203 384.92 640.748 384.273C641.293 383.614 641.714 382.824 642.009 381.903H648.862C648.396 383.915 647.549 385.676 646.322 387.188C645.106 388.699 643.578 389.881 641.737 390.733C639.896 391.585 637.811 392.011 635.481 392.011ZM663.275 392.011C660.593 392.011 658.372 391.466 656.61 390.375C654.849 389.273 653.61 387.716 652.894 385.705C652.19 383.682 652.071 381.29 652.537 378.528C652.991 375.835 653.906 373.472 655.281 371.438C656.667 369.403 658.406 367.818 660.497 366.682C662.588 365.545 664.917 364.977 667.485 364.977C669.213 364.977 670.775 365.256 672.173 365.812C673.582 366.358 674.752 367.187 675.684 368.301C676.616 369.403 677.252 370.784 677.593 372.443C677.946 374.102 677.94 376.045 677.576 378.273L677.252 380.267H655.162L655.86 375.767H671.133C671.304 374.722 671.235 373.795 670.929 372.989C670.622 372.182 670.11 371.551 669.394 371.097C668.679 370.631 667.798 370.398 666.752 370.398C665.684 370.398 664.684 370.659 663.752 371.182C662.821 371.705 662.037 372.392 661.4 373.244C660.775 374.085 660.372 375 660.19 375.989L659.389 380.455C659.162 381.83 659.207 382.972 659.525 383.881C659.855 384.79 660.423 385.472 661.23 385.926C662.037 386.369 663.059 386.591 664.298 386.591C665.105 386.591 665.86 386.477 666.565 386.25C667.281 386.023 667.917 385.688 668.474 385.244C669.031 384.79 669.485 384.227 669.838 383.557L676.468 384C675.855 385.614 674.923 387.023 673.673 388.227C672.423 389.42 670.917 390.352 669.156 391.023C667.406 391.682 665.446 392.011 663.275 392.011Z" fill="#3478F8"/>
<path d="M684.234 391.943C683.086 391.943 682.143 391.545 681.405 390.75C680.677 389.955 680.348 388.989 680.416 387.852C680.495 386.727 680.967 385.778 681.831 385.006C682.706 384.222 683.711 383.83 684.848 383.83C685.939 383.83 686.859 384.222 687.609 385.006C688.359 385.79 688.689 386.739 688.598 387.852C688.541 388.602 688.297 389.29 687.865 389.915C687.444 390.528 686.91 391.023 686.263 391.398C685.615 391.761 684.939 391.943 684.234 391.943Z" fill="#F78718"/>
</g>
<defs>
<clipPath id="clip0_126_50">
<rect width="842" height="492" fill="white"/>
</clipPath>
</defs>
</svg>
